# Blender v2.92.0 OBJ File: 'CloudMasterFile.blend'
# www.blender.org
mtllib Cloud.mtl
o ground_Plane
v -240.550919 -2.122004 77.969772
v 176.155685 -2.122004 77.969772
v -240.550919 -2.122004 -338.736816
v 176.155685 -2.122004 -338.736816
vt 0.000000 0.000000
vt 1.000000 0.000000
vt 1.000000 1.000000
vt 0.000000 1.000000
vn 0.0000 1.0000 0.0000
usemtl Material.001
s off
f 1/1/1 2/2/1 4/3/1 3/4/1
o atmosphere_Cube
v -44.295540 -4.302820 32.116661
v -44.295540 3.983030 32.116661
v -44.295540 -4.302820 -25.142628
v -44.295540 3.983030 -25.142628
v 12.963751 -4.302820 32.116661
v 12.963751 3.983030 32.116661
v 12.963751 -4.302820 -25.142628
v 12.963751 3.983030 -25.142628
vt 0.375000 0.000000
vt 0.625000 0.000000
vt 0.625000 0.250000
vt 0.375000 0.250000
vt 0.625000 0.500000
vt 0.375000 0.500000
vt 0.625000 0.750000
vt 0.375000 0.750000
vt 0.625000 1.000000
vt 0.375000 1.000000
vt 0.125000 0.500000
vt 0.125000 0.750000
vt 0.875000 0.500000
vt 0.875000 0.750000
vn -1.0000 0.0000 0.0000
vn 0.0000 0.0000 -1.0000
vn 1.0000 0.0000 0.0000
vn 0.0000 0.0000 1.0000
vn 0.0000 -1.0000 0.0000
vn 0.0000 1.0000 0.0000
usemtl atmsph
s off
f 5/5/2 6/6/2 8/7/2 7/8/2
f 7/8/3 8/7/3 12/9/3 11/10/3
f 11/10/4 12/9/4 10/11/4 9/12/4
f 9/12/5 10/11/5 6/13/5 5/14/5
f 7/15/6 11/10/6 9/12/6 5/16/6
f 12/9/7 8/17/7 6/18/7 10/11/7
o cumulonimbus4_Cube.001
v -4.924731 1.365385 -4.781902
v -4.924731 -2.632366 -4.781902
v -4.924731 1.365385 0.476092
v -4.924731 -2.632366 0.476092
v -10.182725 1.365385 -4.781902
v -10.182725 -2.632366 -4.781902
v -10.182725 1.365385 0.476092
v -10.182725 -2.632366 0.476092
vt 0.625000 0.500000
vt 0.875000 0.500000
vt 0.875000 0.750000
vt 0.625000 0.750000
vt 0.375000 0.750000
vt 0.625000 1.000000
vt 0.375000 1.000000
vt 0.375000 0.000000
vt 0.625000 0.000000
vt 0.625000 0.250000
vt 0.375000 0.250000
vt 0.125000 0.500000
vt 0.375000 0.500000
vt 0.125000 0.750000
vn 0.0000 1.0000 0.0000
vn 0.0000 0.0000 1.0000
vn -1.0000 0.0000 0.0000
vn 0.0000 -1.0000 0.0000
vn 1.0000 0.0000 0.0000
vn 0.0000 0.0000 -1.0000
usemtl cumulonimbus4
s off
f 13/19/8 17/20/8 19/21/8 15/22/8
f 16/23/9 15/22/9 19/24/9 20/25/9
f 20/26/10 19/27/10 17/28/10 18/29/10
f 18/30/11 14/31/11 16/23/11 20/32/11
f 14/31/12 13/19/12 15/22/12 16/23/12
f 18/29/13 17/28/13 13/19/13 14/31/13
o cumulonimbus3_Cube.002
v -17.056154 1.252827 -4.050698
v -17.056154 -1.973442 -4.050698
v -10.212463 1.252827 -4.050697
v -10.212463 -1.973442 -4.050697
v -17.056156 1.252827 0.217580
v -17.056156 -1.973442 0.217580
v -10.212463 1.252827 0.217581
v -10.212463 -1.973442 0.217581
vt 0.625000 0.500000
vt 0.875000 0.500000
vt 0.875000 0.750000
vt 0.625000 0.750000
vt 0.375000 0.750000
vt 0.625000 1.000000
vt 0.375000 1.000000
vt 0.375000 0.000000
vt 0.625000 0.000000
vt 0.625000 0.250000
vt 0.375000 0.250000
vt 0.125000 0.500000
vt 0.375000 0.500000
vt 0.125000 0.750000
vn 0.0000 1.0000 0.0000
vn 1.0000 0.0000 0.0000
vn -0.0000 0.0000 1.0000
vn 0.0000 -1.0000 0.0000
vn 0.0000 0.0000 -1.0000
vn -1.0000 0.0000 -0.0000
usemtl cumulonimbus3
s off
f 21/33/14 25/34/14 27/35/14 23/36/14
f 24/37/15 23/36/15 27/38/15 28/39/15
f 28/40/16 27/41/16 25/42/16 26/43/16
f 26/44/17 22/45/17 24/37/17 28/46/17
f 22/45/18 21/33/18 23/36/18 24/37/18
f 26/43/19 25/42/19 21/33/19 22/45/19
o cumulonimbus1_Cube.003
v -16.050449 1.292588 -4.219516
v -16.050449 -2.053005 -4.219516
v -16.050449 1.292588 -0.873924
v -16.050449 -2.053005 -0.873924
v -19.396042 1.292588 -4.219516
v -19.396042 -2.053005 -4.219516
v -19.396042 1.292588 -0.873924
v -19.396042 -2.053005 -0.873924
vt 0.625000 0.500000
vt 0.875000 0.500000
vt 0.875000 0.750000
vt 0.625000 0.750000
vt 0.375000 0.750000
vt 0.625000 1.000000
vt 0.375000 1.000000
vt 0.375000 0.000000
vt 0.625000 0.000000
vt 0.625000 0.250000
vt 0.375000 0.250000
vt 0.125000 0.500000
vt 0.375000 0.500000
vt 0.125000 0.750000
vn 0.0000 1.0000 0.0000
vn 0.0000 0.0000 1.0000
vn -1.0000 0.0000 0.0000
vn 0.0000 -1.0000 0.0000
vn 1.0000 0.0000 0.0000
vn 0.0000 0.0000 -1.0000
usemtl cumulonimbus1
s off
f 29/47/20 33/48/20 35/49/20 31/50/20
f 32/51/21 31/50/21 35/52/21 36/53/21
f 36/54/22 35/55/22 33/56/22 34/57/22
f 34/58/23 30/59/23 32/51/23 36/60/23
f 30/59/24 29/47/24 31/50/24 32/51/24
f 34/57/25 33/56/25 29/47/25 30/59/25
o stratus1_Cube.004
v -8.502531 -1.017786 13.789827
v -8.502531 -2.109415 13.789827
v -8.502531 -1.017786 22.725035
v -8.502531 -2.109415 22.725035
v -17.470287 -1.017786 13.789827
v -17.470287 -2.109415 13.789827
v -17.470287 -1.017786 22.725035
v -17.470287 -2.109415 22.725035
vt 0.625000 0.500000
vt 0.875000 0.500000
vt 0.875000 0.750000
vt 0.625000 0.750000
vt 0.375000 0.750000
vt 0.625000 1.000000
vt 0.375000 1.000000
vt 0.375000 0.000000
vt 0.625000 0.000000
vt 0.625000 0.250000
vt 0.375000 0.250000
vt 0.125000 0.500000
vt 0.375000 0.500000
vt 0.125000 0.750000
vn 0.0000 1.0000 0.0000
vn 0.0000 0.0000 1.0000
vn -1.0000 0.0000 0.0000
vn 0.0000 -1.0000 0.0000
vn 1.0000 0.0000 0.0000
vn 0.0000 0.0000 -1.0000
usemtl stratus1
s off
f 37/61/26 41/62/26 43/63/26 39/64/26
f 40/65/27 39/64/27 43/66/27 44/67/27
f 44/68/28 43/69/28 41/70/28 42/71/28
f 42/72/29 38/73/29 40/65/29 44/74/29
f 38/73/30 37/61/30 39/64/30 40/65/30
f 42/71/31 41/70/31 37/61/31 38/73/31
o stratocumulus2_Cube.005
v 0.915088 -0.664113 13.839680
v 0.915088 -2.118192 13.839680
v 0.915088 -0.664113 22.774887
v 0.915088 -2.118192 22.774887
v -8.052667 -0.664113 13.839680
v -8.052667 -2.118192 13.839680
v -8.052667 -0.664113 22.774887
v -8.052667 -2.118192 22.774887
vt 0.625000 0.500000
vt 0.875000 0.500000
vt 0.875000 0.750000
vt 0.625000 0.750000
vt 0.375000 0.750000
vt 0.625000 1.000000
vt 0.375000 1.000000
vt 0.375000 0.000000
vt 0.625000 0.000000
vt 0.625000 0.250000
vt 0.375000 0.250000
vt 0.125000 0.500000
vt 0.375000 0.500000
vt 0.125000 0.750000
vn 0.0000 1.0000 0.0000
vn 0.0000 0.0000 1.0000
vn -1.0000 0.0000 0.0000
vn 0.0000 -1.0000 0.0000
vn 1.0000 0.0000 0.0000
vn 0.0000 0.0000 -1.0000
usemtl stratocumulus2
s off
f 45/75/32 49/76/32 51/77/32 47/78/32
f 48/79/33 47/78/33 51/80/33 52/81/33
f 52/82/34 51/83/34 49/84/34 50/85/34
f 50/86/35 46/87/35 48/79/35 52/88/35
f 46/87/36 45/75/36 47/78/36 48/79/36
f 50/85/37 49/84/37 45/75/37 46/87/37
o stratocumulus1_Cube.008
v 6.804324 0.139396 3.727086
v 6.804324 -1.940894 3.727086
v 6.804324 0.139396 13.530035
v 6.804324 -1.940894 13.530035
v -3.034334 0.139396 3.727086
v -3.034334 -1.940894 3.727086
v -3.034334 0.139396 13.530035
v -3.034334 -1.940894 13.530035
vt 0.625000 0.500000
vt 0.875000 0.500000
vt 0.875000 0.750000
vt 0.625000 0.750000
vt 0.375000 0.750000
vt 0.625000 1.000000
vt 0.375000 1.000000
vt 0.375000 0.000000
vt 0.625000 0.000000
vt 0.625000 0.250000
vt 0.375000 0.250000
vt 0.125000 0.500000
vt 0.375000 0.500000
vt 0.125000 0.750000
vn 0.0000 1.0000 0.0000
vn 0.0000 0.0000 1.0000
vn -1.0000 0.0000 0.0000
vn 0.0000 -1.0000 0.0000
vn 1.0000 0.0000 0.0000
vn 0.0000 0.0000 -1.0000
usemtl stratocumulus1
s off
f 53/89/38 57/90/38 59/91/38 55/92/38
f 56/93/39 55/92/39 59/94/39 60/95/39
f 60/96/40 59/97/40 57/98/40 58/99/40
f 58/100/41 54/101/41 56/93/41 60/102/41
f 54/101/42 53/89/42 55/92/42 56/93/42
f 58/99/43 57/98/43 53/89/43 54/101/43
o cirrus_Cube.009
v 9.900945 2.727650 -10.953546
v 9.900945 2.375714 -10.953546
v 9.900945 2.727650 23.739319
v 9.900945 2.375714 23.739319
v -24.918293 2.727650 -10.953546
v -24.918293 2.375714 -10.953546
v -24.918293 2.727650 23.739319
v -24.918293 2.375714 23.739319
vt 0.625000 0.500000
vt 0.875000 0.500000
vt 0.875000 0.750000
vt 0.625000 0.750000
vt 0.375000 0.750000
vt 0.625000 1.000000
vt 0.375000 1.000000
vt 0.375000 0.000000
vt 0.625000 0.000000
vt 0.625000 0.250000
vt 0.375000 0.250000
vt 0.125000 0.500000
vt 0.375000 0.500000
vt 0.125000 0.750000
vn 0.0000 1.0000 0.0000
vn 0.0000 0.0000 1.0000
vn -1.0000 0.0000 0.0000
vn 0.0000 -1.0000 0.0000
vn 1.0000 0.0000 0.0000
vn 0.0000 0.0000 -1.0000
usemtl cirrus
s off
f 61/103/44 65/104/44 67/105/44 63/106/44
f 64/107/45 63/106/45 67/108/45 68/109/45
f 68/110/46 67/111/46 65/112/46 66/113/46
f 66/114/47 62/115/47 64/107/47 68/116/47
f 62/115/48 61/103/48 63/106/48 64/107/48
f 66/113/49 65/112/49 61/103/49 62/115/49
o cumulus2_Cube.012
v 7.842675 0.967046 -4.675613
v 7.842675 -2.057932 -4.675613
v 7.842675 0.967046 -0.697045
v 7.842675 -2.057932 -0.697045
v 3.864107 0.967046 -4.675613
v 3.864107 -2.057932 -4.675613
v 3.864107 0.967046 -0.697045
v 3.864107 -2.057932 -0.697045
vt 0.625000 0.500000
vt 0.875000 0.500000
vt 0.875000 0.750000
vt 0.625000 0.750000
vt 0.375000 0.750000
vt 0.625000 1.000000
vt 0.375000 1.000000
vt 0.375000 0.000000
vt 0.625000 0.000000
vt 0.625000 0.250000
vt 0.375000 0.250000
vt 0.125000 0.500000
vt 0.375000 0.500000
vt 0.125000 0.750000
vn 0.0000 1.0000 0.0000
vn 0.0000 0.0000 1.0000
vn -1.0000 0.0000 0.0000
vn 0.0000 -1.0000 0.0000
vn 1.0000 0.0000 0.0000
vn 0.0000 0.0000 -1.0000
usemtl cumulus2
s off
f 69/117/50 73/118/50 75/119/50 71/120/50
f 72/121/51 71/120/51 75/122/51 76/123/51
f 76/124/52 75/125/52 73/126/52 74/127/52
f 74/128/53 70/129/53 72/121/53 76/130/53
f 70/129/54 69/117/54 71/120/54 72/121/54
f 74/127/55 73/126/55 69/117/55 70/129/55
o stratus2_Cube.010
v -12.272821 -1.017787 1.712608
v -12.272821 -2.109416 1.712608
v -12.272821 -1.017787 12.983705
v -12.272821 -2.109416 12.983705
v -23.584974 -1.017787 1.712608
v -23.584974 -2.109416 1.712608
v -23.584974 -1.017787 12.983705
v -23.584974 -2.109416 12.983705
vt 0.625000 0.500000
vt 0.875000 0.500000
vt 0.875000 0.750000
vt 0.625000 0.750000
vt 0.375000 0.750000
vt 0.625000 1.000000
vt 0.375000 1.000000
vt 0.375000 0.000000
vt 0.625000 0.000000
vt 0.625000 0.250000
vt 0.375000 0.250000
vt 0.125000 0.500000
vt 0.375000 0.500000
vt 0.125000 0.750000
vn 0.0000 1.0000 0.0000
vn 0.0000 0.0000 1.0000
vn -1.0000 0.0000 0.0000
vn 0.0000 -1.0000 0.0000
vn 1.0000 0.0000 0.0000
vn 0.0000 0.0000 -1.0000
usemtl stratus2
s off
f 77/131/56 81/132/56 83/133/56 79/134/56
f 80/135/57 79/134/57 83/136/57 84/137/57
f 84/138/58 83/139/58 81/140/58 82/141/58
f 82/142/59 78/143/59 80/135/59 84/144/59
f 78/143/60 77/131/60 79/134/60 80/135/60
f 82/141/61 81/140/61 77/131/61 78/143/61
o cumulus1_Cube.049
v 3.842705 0.851990 -4.375174
v 3.842705 -2.379040 -4.375174
v 3.794473 0.851990 -0.125873
v 3.794473 -2.379040 -0.125873
v -0.406595 0.851990 -4.423406
v -0.406595 -2.379040 -4.423406
v -0.454827 0.851990 -0.174105
v -0.454827 -2.379040 -0.174105
vt 0.625000 0.500000
vt 0.875000 0.500000
vt 0.875000 0.750000
vt 0.625000 0.750000
vt 0.375000 0.750000
vt 0.625000 1.000000
vt 0.375000 1.000000
vt 0.375000 0.000000
vt 0.625000 0.000000
vt 0.625000 0.250000
vt 0.375000 0.250000
vt 0.125000 0.500000
vt 0.375000 0.500000
vt 0.125000 0.750000
vn 0.0000 1.0000 0.0000
vn -0.0113 0.0000 0.9999
vn -0.9999 0.0000 -0.0113
vn 0.0000 -1.0000 0.0000
vn 0.9999 0.0000 0.0113
vn 0.0113 0.0000 -0.9999
usemtl cumulus1
s off
f 85/145/62 89/146/62 91/147/62 87/148/62
f 88/149/63 87/148/63 91/150/63 92/151/63
f 92/152/64 91/153/64 89/154/64 90/155/64
f 90/156/65 86/157/65 88/149/65 92/158/65
f 86/157/66 85/145/66 87/148/66 88/149/66
f 90/155/67 89/154/67 85/145/67 86/157/67
o cumulonimbus2_Cube.015
v -19.847822 1.898040 -4.544915
v -19.847822 -2.087478 -4.544915
v -19.847822 1.898040 -0.559396
v -19.847822 -2.087478 -0.559396
v -23.833340 1.898040 -4.544915
v -23.833340 -2.087478 -4.544915
v -23.833340 1.898040 -0.559396
v -23.833340 -2.087478 -0.559396
vt 0.625000 0.500000
vt 0.875000 0.500000
vt 0.875000 0.750000
vt 0.625000 0.750000
vt 0.375000 0.750000
vt 0.625000 1.000000
vt 0.375000 1.000000
vt 0.375000 0.000000
vt 0.625000 0.000000
vt 0.625000 0.250000
vt 0.375000 0.250000
vt 0.125000 0.500000
vt 0.375000 0.500000
vt 0.125000 0.750000
vn 0.0000 1.0000 0.0000
vn 0.0000 0.0000 1.0000
vn -1.0000 0.0000 0.0000
vn 0.0000 -1.0000 0.0000
vn 1.0000 0.0000 0.0000
vn 0.0000 0.0000 -1.0000
usemtl cumulonimbus2
s off
f 93/159/68 97/160/68 99/161/68 95/162/68
f 96/163/69 95/162/69 99/164/69 100/165/69
f 100/166/70 99/167/70 97/168/70 98/169/70
f 98/170/71 94/171/71 96/163/71 100/172/71
f 94/171/72 93/159/72 95/162/72 96/163/72
f 98/169/73 97/168/73 93/159/73 94/171/73
o cumulus3_Cube.007
v 11.721354 0.505889 -0.733545
v 11.721354 -2.162102 -0.733545
v 8.212310 0.505889 -0.733545
v 8.212310 -2.162102 -0.733545
v 11.721354 0.505889 -4.242590
v 11.721354 -2.162102 -4.242590
v 8.212310 0.505889 -4.242589
v 8.212310 -2.162102 -4.242589
vt 0.625000 0.500000
vt 0.875000 0.500000
vt 0.875000 0.750000
vt 0.625000 0.750000
vt 0.375000 0.750000
vt 0.625000 1.000000
vt 0.375000 1.000000
vt 0.375000 0.000000
vt 0.625000 0.000000
vt 0.625000 0.250000
vt 0.375000 0.250000
vt 0.125000 0.500000
vt 0.375000 0.500000
vt 0.125000 0.750000
vn 0.0000 1.0000 0.0000
vn -1.0000 0.0000 0.0000
vn -0.0000 0.0000 -1.0000
vn 0.0000 -1.0000 -0.0000
vn 0.0000 0.0000 1.0000
vn 1.0000 0.0000 -0.0000
usemtl cumulus3
s off
f 101/173/74 105/174/74 107/175/74 103/176/74
f 104/177/75 103/176/75 107/178/75 108/179/75
f 108/180/76 107/181/76 105/182/76 106/183/76
f 106/184/77 102/185/77 104/177/77 108/186/77
f 102/185/78 101/173/78 103/176/78 104/177/78
f 106/183/79 105/182/79 101/173/79 102/185/79
