# WaveFront *.obj file (generated by CINEMA 4D)

v -71.33162689208984 -30.94442367553711 -38.14471435546875
v -75.61254882812500 -3.07117176055908 -38.14190292358398
v 72.34217834472656 -63.14163589477539 1.75172829627991
v -71.25703430175781 -11.22300910949707 43.78219985961914
v -77.28958892822266 15.51139736175537 -19.24095535278320
v -41.84563446044922 -30.58291244506836 -38.60965728759766
v 1.25921344757080 24.59554481506348 -50.44364929199219
v 60.95583343505859 4.98233175277710 -41.27117156982422
v -40.34280395507812 -7.98349952697754 -47.19384002685547
v -74.57931518554688 -57.82019424438477 -10.17898464202881
v -38.06655120849609 -49.48907852172852 -0.48156249523163
v -10.06917762756348 62.37011718750000 23.88900375366211
v 0.27896037697792 -19.10371017456055 -61.74650192260742
v -72.46173858642578 38.33619689941406 15.57321929931641
v 9.92164897918701 -66.23207092285156 16.38832664489746
v -9.35012626647949 63.25199127197266 -22.63936805725098
v 59.19472503662109 -17.92149734497070 -60.67015075683594
v -75.36059570312500 38.25289535522461 -11.37434577941895
v 26.66312980651855 41.59453582763672 -44.03522872924805
v 27.30506134033203 41.80510711669922 43.55316543579102
v 98.98092651367188 -48.81967926025391 1.51930725574493
v 9.92164897918701 -66.23207092285156 -16.20374679565430
v -42.29843139648438 -10.20600032806396 47.66529464721680
v 84.92406463623047 -18.47233009338379 46.05596160888672
v 88.44168090820312 -26.34665679931641 -38.44115447998047
v 26.63643074035645 -55.11425018310547 -43.55506134033203
v 61.34634780883789 28.25929641723633 -3.58139467239380
v -32.19687271118164 35.89399337768555 -25.24928283691406
v 111.32744598388672 -25.89723777770996 -0.57722330093384
v 101.45045471191406 6.45375967025757 -0.06180088222027
v 31.21103858947754 66.23207092285156 -1.03532052040100
v -80.20376586914062 15.39854907989502 16.18878936767578
v -49.57699584960938 52.48820114135742 2.27367281913757
v -106.65122222900391 -36.23197174072266 -11.37434577941895
v 54.90813827514648 22.56412506103516 18.82767486572266
v -106.65122222900391 -36.23197174072266 11.55892562866211
v -29.85549926757812 35.42740631103516 27.65551567077637
v -0.11724619567394 -21.03453063964844 61.74650192260742
v -74.73878479003906 -56.71980285644531 14.60696601867676
v -111.32744598388672 3.38962364196777 1.06362569332123
v 5.66174364089966 16.49406433105469 52.76407241821289
v 60.29552841186523 -17.70377540588379 60.64697647094727
v 25.71156311035156 -50.63117980957031 47.73918914794922
v -41.84563446044922 -30.58291244506836 38.79423904418945
# 44 vertices

vn -0.27282521128654 -0.39790540933609 -0.87592107057571
vn -0.48754099011421 0.27978476881981 -0.82705760002136
vn -0.30290767550468 0.22504249215126 -0.92606848478317
vn 0.00000000000000 0.00000000000000 0.00000000000000
vn -0.40520867705345 -0.01558438129723 0.91409140825272
vn -0.87523925304413 0.48349055647850 0.01389614958316
vn -0.79523003101349 -0.40464240312576 0.45152378082275
vn -0.10130373388529 -0.91398274898529 -0.39290335774422
vn -0.12552687525749 -0.66001951694489 -0.74068701267242
vn -0.10709334164858 -0.99007004499435 -0.09106246381998
vn -0.76768726110458 -0.48063001036644 -0.42385265231133
vn -0.31314074993134 0.08814966678619 0.94560694694519
vn -0.54443132877350 0.61033678054810 0.57539856433868
vn -0.69917082786560 0.56211209297180 0.44180330634117
vn -0.22176533937454 -0.88013207912445 0.41974714398384
vn -0.34665092825890 0.65860849618912 -0.66788315773010
vn 0.28279140591621 -0.95639711618423 -0.07303167134523
vn 0.68734538555145 -0.23528312146664 -0.68716681003571
vn 0.66433888673782 -0.72755444049835 0.17122590541840
vn 0.32506051659584 0.59653037786484 -0.73381680250168
vn 0.43000206351280 0.51409077644348 -0.74216502904892
vn -0.12905339896679 -0.03611460328102 -0.99097979068756
vn -0.09153670072556 0.33279076218605 -0.93854749202728
vn 0.99531614780426 -0.09660137444735 -0.00372594944201
vn -0.71147280931473 0.60860168933868 -0.35129812359810
vn -0.40893200039864 0.58500891923904 0.70038503408432
vn -0.38362634181976 0.73935806751251 -0.55333572626114
vn -0.32801944017410 0.76569682359695 -0.55327349901199
vn 0.36723163723946 0.60876315832138 -0.70324128866196
vn 0.68747055530548 0.72526681423187 -0.03704506903887
vn 0.74045616388321 0.66985356807709 -0.05496187135577
vn -0.40475127100945 0.79579246044159 0.45043402910233
vn 0.49106225371361 0.54069936275482 0.68300956487656
vn 0.42072424292564 0.90714418888092 -0.00897401664406
vn 0.66586852073669 0.11865593492985 0.73657310009003
vn 0.24257853627205 -0.02927973121405 0.96968984603882
vn 0.05482928454876 -0.70292884111404 0.70914369821548
vn -0.02984989434481 0.99930852651596 0.02216779999435
vn 0.67095267772675 0.74113845825195 -0.02315754443407
vn -0.01989584043622 -0.76415556669235 -0.64472508430481
vn -0.15392929315567 -0.96135014295578 -0.22827976942062
vn 0.56353724002838 0.57700973749161 0.59117299318314
vn -0.16619922220707 -0.67800980806351 0.71601712703705
vn 0.02052996866405 0.42492642998695 0.90499508380890
vn -0.16425499320030 -0.15510724484921 0.97414684295654
vn 0.19162265956402 -0.54374408721924 -0.81708204746246
vn -0.99038583040237 0.11206233501434 -0.08110453933477
vn -0.18299292027950 -0.94461870193481 0.27241355180740
# 48 normals

vt 0.40299326181412 0.77687782049179 0.00000000000000
vt 0.37238392233849 0.70411705970764 0.00000000000000
vt 0.47154536843300 0.68531572818756 0.00000000000000
vt 0.00000000000000 1.00000000000000 0.00000000000000
vt 0.18699550628662 0.46171796321869 0.00000000000000
vt 0.17632344365120 0.68837612867355 0.00000000000000
vt 0.02029456198215 0.57106870412827 0.00000000000000
vt 0.39118894934654 0.89497148990631 0.00000000000000
vt 0.49500560760498 0.76049816608429 0.00000000000000
vt 0.54590207338333 0.94198685884476 0.00000000000000
vt 0.28036072850227 0.82539451122284 0.00000000000000
vt 0.23747476935387 0.39753878116608 0.00000000000000
vt 0.31852254271507 0.54361540079117 0.00000000000000
vt 0.25887399911880 0.56289947032928 0.00000000000000
vt 0.00000000000000 0.39447069168091 0.00000000000000
vt 0.33229002356529 0.64083647727966 0.00000000000000
vt 0.97510355710983 0.59916174411774 0.00000000000000
vt 0.76755952835083 0.47509431838989 0.00000000000000
vt 0.96106779575348 0.44008743762970 0.00000000000000
vt 0.68483048677444 0.54080247879028 0.00000000000000
vt 0.64352941513062 0.47948133945465 0.00000000000000
vt 0.58942329883575 0.63742738962173 0.00000000000000
vt 0.52918392419815 0.55888998508453 0.00000000000000
vt 0.35111555457115 1.00000000000000 0.00000000000000
vt 0.20800031721592 0.88479143381119 0.00000000000000
vt 0.87954121828079 0.32745742797852 0.00000000000000
vt 0.34244346618652 0.58565652370453 0.00000000000000
vt 0.36695638298988 0.46958220005035 0.00000000000000
vt 0.43757233023643 0.56795150041580 0.00000000000000
vt 0.46725535392761 0.50414931774139 0.00000000000000
vt 0.53782880306244 0.49993944168091 0.00000000000000
vt 0.57188498973846 0.38561069965363 0.00000000000000
vt 0.70603477954864 0.25739955902100 0.00000000000000
vt 0.42296463251114 0.45838844776154 0.00000000000000
vt 0.44398766756058 0.39563429355621 0.00000000000000
vt 0.48781985044479 0.44795620441437 0.00000000000000
vt 0.66707229614258 0.08439266681671 0.00000000000000
vt 0.49920013546944 0.20870029926300 0.00000000000000
vt 0.43456876277924 0.24365913867950 0.00000000000000
vt 0.32596853375435 0.19377017021179 0.00000000000000
vt 0.36719539761543 0.53959357738495 0.00000000000000
vt 0.72594624757767 0.67837488651276 0.00000000000000
vt 0.74507379531860 0.80841714143753 0.00000000000000
vt 0.51668572425842 0.35333383083344 0.00000000000000
vt 0.56224352121353 0.00172936916351 0.00000000000000
vt 0.18758080899715 0.35005629062653 0.00000000000000
vt 0.38528558611870 0.36690223217010 0.00000000000000
vt 0.32606115937233 0.30412137508392 0.00000000000000
vt 0.06503750383854 0.22914099693298 0.00000000000000
vt 0.16735363006592 0.02915871143341 0.00000000000000
vt 0.23661282658577 0.13159549236298 0.00000000000000
vt 0.43851506710052 0.00000000000000 0.00000000000000
# 52 texture coordinates

o poly_cloud_3
usemtl default
f 1/1/1 2/2/2 9/3/3
f 4/5/5 40/6/6 36/7/7
f 10/8/8 6/9/9 11/10/10
f 1/1/1 10/8/8 34/11/11
f 23/12/12 14/13/13 32/14/14
f 36/7/7 39/15/15 4/5/5
f 2/2/2 5/16/16 9/3/3
f 3/17/17 25/18/18 21/19/19
f 17/20/20 8/21/21 25/18/18
f 13/22/22 7/23/23 8/21/21
f 34/11/11 39/24/15 36/25/7
f 29/26/24 21/19/19 25/18/18
f 32/14/14 14/13/13 18/27/25
f 23/12/12 37/28/26 14/13/13
f 9/3/3 28/29/27 16/30/28
f 7/23/23 16/30/28 19/31/29
f 8/21/21 27/32/30 30/33/31
f 12/34/32 20/35/33 31/36/34
f 25/18/18 8/21/21 30/33/31
f 5/16/16 28/29/27 9/3/3
f 29/37/24 30/33/31 24/38/35
f 42/39/36 43/40/37 24/38/35
f 33/41/38 37/28/39 28/29/27
f 13/22/22 8/21/21 17/20/20
f 11/10/10 26/42/40 22/43/41
f 18/27/25 28/29/27 5/16/16
f 30/33/31 35/44/42 24/38/35
f 40/6/6 5/16/16 2/2/2
f 43/40/37 21/45/19 24/38/35
f 23/12/12 32/14/14 4/5/5
f 4/5/5 32/14/14 40/6/6
f 14/13/13 33/41/38 18/27/25
f 4/5/5 39/15/15 44/46/43
f 41/47/44 42/39/36 24/38/35
f 8/21/21 19/31/29 27/32/30
f 3/17/17 26/42/40 25/18/18
f 38/48/45 41/47/44 23/12/12
f 13/22/22 6/9/9 9/3/3
f 16/30/28 31/36/34 19/31/29
f 4/5/5 44/46/43 23/12/12
f 39/15/15 11/49/10 44/46/43
f 17/20/46 26/42/40 13/22/22
f 41/47/44 12/34/32 37/28/26
f 9/3/3 16/30/28 7/23/23
f 23/12/12 44/46/43 43/40/37
f 9/3/3 7/23/23 13/22/22
f 13/22/22 26/42/40 6/9/9
f 34/11/11 40/6/6 2/2/2
f 32/14/14 18/27/25 5/16/47
f 40/6/6 32/14/14 5/16/16
f 25/18/18 30/33/31 29/26/24
f 11/49/10 22/50/41 15/51/48
f 10/8/8 1/1/1 6/9/9
f 18/27/25 33/41/38 28/29/27
f 35/44/42 41/47/44 24/38/35
f 42/39/36 41/47/44 38/48/45
f 28/29/27 12/34/32 16/30/28
f 24/38/35 21/45/19 29/37/24
f 19/31/29 31/36/34 27/32/30
f 20/35/33 35/44/42 27/32/30
f 34/11/11 2/2/2 1/1/1
f 44/46/43 15/51/48 43/40/37
f 28/29/27 37/28/26 12/34/32
f 16/30/28 12/34/32 31/36/34
f 7/23/23 19/31/29 8/21/21
f 35/44/42 20/35/33 41/47/44
f 33/41/38 14/13/13 37/28/26
f 30/33/31 27/32/30 35/44/42
f 20/35/33 12/34/32 41/47/44
f 41/47/44 37/28/26 23/12/12
f 31/36/34 20/35/33 27/32/30
f 34/11/11 10/8/8 39/24/15
f 38/48/45 43/40/37 42/39/36
f 22/43/41 26/42/40 3/17/17
f 44/46/43 11/49/10 15/51/48
f 43/40/37 15/51/48 3/52/17
f 43/40/37 3/52/17 21/45/19
f 9/3/3 6/9/9 1/1/1
f 39/24/15 10/8/8 11/10/10
f 11/10/10 6/9/9 26/42/40
f 23/12/12 43/40/37 38/48/45
f 15/51/48 22/50/41 3/52/17
f 25/18/18 26/42/40 17/20/46
f 36/25/7 40/6/6 34/11/11

